<svg id="Laag_1" data-name="Laag 1" xmlns="http://www.w3.org/2000/svg" viewBox="0 0 761.6 125"><defs><style>.cls-1{fill:#fff}</style></defs><path class="cls-1" d="M68.5 289.6h6.4c1 0 1.3.2 1.5.4l.1.2a11.28 11.28 0 01.3 3.5v17.5c-3.7-2.3-8.4-3.5-14-3.5-6.7 0-12.4 1.8-16.9 5.3-4.8 3.5-7.3 8.7-7.3 15a19.69 19.69 0 004.3 12.4 26.18 26.18 0 0010.5 8.2c7.1 3.2 15.6 4.9 25.5 4.9 10.7 0 19.9-2.2 27.3-6.4 10.1-5.6 15.4-14.7 15.4-26.1v-27.3a11.91 11.91 0 01.5-3.9 3.57 3.57 0 011.5-.2h6.4v-25H68.5zm177.8-9.4c-7.4-7.8-18.2-12.6-32.1-14.3a246.65 246.65 0 00-28.9-1.3h-47.2v25h6.5c1 0 1.3.2 1.5.4l.1.2a11.28 11.28 0 01.3 3.5v28.6c0 2.4-.3 3.6-.6 4.1a10.87 10.87 0 01-1.3.1h-6.5v25.1h58.5c11.5 0 18.8-.4 23.6-1.4a51.8 51.8 0 0020.7-8.8c10.4-7.7 15.7-18.7 15.7-32.9 0-11.5-3.5-21-10.3-28.3zm-40.4 27.7c0 9.7-2.1 15.8-5.8 17.3a25.35 25.35 0 01-6.3.7h-2.2v-35.6h.6a38 38 0 016.9.5 7.86 7.86 0 014 2.5c.8.8 2.8 4.1 2.8 14.6z" transform="translate(-38.6 -228.5)"/><path d="M303.2 346.3H409S525.4 287 799.8 228.5c.1 0-421.1 28.9-496.6 117.8z" transform="translate(-38.6 -228.5)" fill="#199ec3"/><path class="cls-1" d="M70.1 252.1l-3.5-7.8h-5.1l-3.5 7.9a1.61 1.61 0 01-.4.7 2.19 2.19 0 01-.5.3 1.48 1.48 0 01-.7.1v2.1h6.4v-2.1h-.9c-.1 0-.1-.1-.2-.2a.6.6 0 01-.1-.4 1.76 1.76 0 01.1-.6H65a1.42 1.42 0 01.2.6.55.55 0 01-.3.5.75.75 0 01-.5.1H64v2.1h7.7v-2.1c-.4 0-.7 0-.8-.1a2.75 2.75 0 01-.8-1.1zm-7.7-1.8l1-2.5 1 2.5zm20.8 3.4c-.2 0-.3-.2-.3-.4v-3.4a2.22 2.22 0 00-.1-.9 2.87 2.87 0 00-2.2-1.7 7.66 7.66 0 00-2.7-.4 7.57 7.57 0 00-1.5.1 10.3 10.3 0 00-2.7.7 1.56 1.56 0 00-1.1 1.3 1.45 1.45 0 00.2.7 2.65 2.65 0 00.6.5 5 5 0 001.2.2 2.65 2.65 0 001.4-.3 1.21 1.21 0 00.6-.9.91.91 0 00-.3-.5 3.55 3.55 0 011-.2c1.2 0 1.8.4 1.9 1.2v.8h-.8a10.87 10.87 0 00-1.8.1 8.25 8.25 0 00-3.2.9 2.26 2.26 0 00-1.1 1.9 1.87 1.87 0 00.5 1.4 2 2 0 00.9.6 5.56 5.56 0 002.3.4 7.79 7.79 0 002.1-.4 4 4 0 001.3-.7l.4.4a2.88 2.88 0 001.9.6 2.8 2.8 0 002.5-1 1.14 1.14 0 00.3-.6 3.08 3.08 0 00.1-1h-.7c0 .3-.1.5-.7.6zm-4-.3a3.69 3.69 0 01-1.7.5 1.22 1.22 0 01-.9-.3.6.6 0 01-.3-.6.93.93 0 01.7-.9 6.37 6.37 0 01.9-.2 4.48 4.48 0 011.1-.1h.3zm18-.7V250a2.77 2.77 0 00-.1-.9 3.81 3.81 0 00-.9-1.3 3.74 3.74 0 00-2.6-.9 5.38 5.38 0 00-2.2.4 3.74 3.74 0 00-1 .6v-.8h-4.9v1.8h.1c.6 0 .8.3.8 1v2.8a.77.77 0 01-.8 1h-.1v1.7h6v-1.7h-.3c-.6 0-.9-.3-.9-1v-2.3a1.43 1.43 0 01.5-1.1 1.69 1.69 0 011-.3c.5 0 .9.1 1.1.5a1.8 1.8 0 01.3 1.1v2.1a.77.77 0 01-.8 1h-.3v1.7h6v-1.7H98c-.5 0-.8-.3-.8-1zm13.8 0V250a2.77 2.77 0 00-.1-.9 3.81 3.81 0 00-.9-1.3 3.74 3.74 0 00-2.6-.9 5.38 5.38 0 00-2.2.4 3.74 3.74 0 00-1 .6v-.8h-4.9v1.8h.1c.6 0 .8.3.8 1v2.8a.77.77 0 01-.8 1h-.1v1.7h6v-1.7h-.3c-.6 0-.9-.3-.9-1v-2.3a1.43 1.43 0 01.5-1.1 1.69 1.69 0 011-.3c.5 0 .9.1 1.1.5a1.8 1.8 0 01.3 1.1v2.1a.77.77 0 01-.8 1h-.3v1.7h6v-1.7h-.1c-.5 0-.8-.3-.8-1zm11.6-4.9a5.44 5.44 0 00-1.7-.7 7.11 7.11 0 00-2.1-.3 9.28 9.28 0 00-2.4.3 6.48 6.48 0 00-2.2 1.1 3.89 3.89 0 00-1.4 3 3.82 3.82 0 002.9 3.9 9.43 9.43 0 003 .5 6.76 6.76 0 004.2-1.2 3.57 3.57 0 001.4-2.3h-3.8a1.39 1.39 0 01-1.5 1.4 1.49 1.49 0 01-1.3-.6 1.8 1.8 0 01-.3-1.1v-.2h7v-.3a5.85 5.85 0 00-.2-1.3 3.66 3.66 0 00-1.6-2.2zm-2.4 2.4h-2.7a1.45 1.45 0 01.2-.7 1.21 1.21 0 011.2-.6 1.22 1.22 0 01.9.3 1.27 1.27 0 01.4.9zm23.8 2.6v-2.2a3.25 3.25 0 00-1-2.6 4.17 4.17 0 00-2.9-1.1 5.66 5.66 0 00-2.8.8 3 3 0 00-.7.5 4.71 4.71 0 00-3.2-1.3 4.48 4.48 0 00-2 .4c-.2.1-.5.3-1 .6v-.8h-4.7v1.9h.1c.6 0 .8.3.8 1v2.8a.77.77 0 01-.8 1h-.1v1.7h6v-1.7h-.3c-.4 0-.7-.1-.8-.4-.1-.1-.1-.3-.1-.6v-2a1.73 1.73 0 01.5-1.3 1.46 1.46 0 012.1.1 2.13 2.13 0 01.3 1.2v2c0 .6-.3 1-.9 1h-.3v1.7h6.3v-1.7h-.3c-.4 0-.7-.1-.8-.4-.1-.1-.1-.3-.1-.6v-2.3a1.27 1.27 0 01.1-.6c.1-.1.2-.3.3-.4a1.16 1.16 0 011-.4c.9 0 1.4.6 1.4 1.7v2a.77.77 0 01-.8 1h-.3v1.7h6v-1.7h-.1c-.6 0-.9-.3-.9-1zm11.5-5a5.44 5.44 0 00-1.7-.7 7.11 7.11 0 00-2.1-.3 9.28 9.28 0 00-2.4.3 6.48 6.48 0 00-2.2 1.1 3.89 3.89 0 00-1.4 3 3.82 3.82 0 002.9 3.9 9.43 9.43 0 003 .5 6.76 6.76 0 004.2-1.2 3.57 3.57 0 001.4-2.3h-3.8a1.39 1.39 0 01-1.5 1.4 1.49 1.49 0 01-1.3-.6 1.8 1.8 0 01-.3-1.1v-.2h7v-.3a5.85 5.85 0 00-.2-1.3 3.66 3.66 0 00-1.6-2.2zm-2.4 2.4h-2.7a1.45 1.45 0 01.2-.7 1.21 1.21 0 011.2-.6 1.22 1.22 0 01.9.3 1.27 1.27 0 01.4.9v.1zm12.9-3.3a2.93 2.93 0 00-1.6.4 9 9 0 00-1.1.7v-.9h-4.7v1.9h.1c.6 0 .8.3.8 1v2.8a.77.77 0 01-.8 1h-.1v1.7h6v-1.7h-.3c-.4 0-.7-.1-.8-.4-.1-.1-.1-.3-.1-.6v-2.2a1.59 1.59 0 01.4-1.2c.1-.1.4-.2.7-.4a1.27 1.27 0 00-.1.6 1.39 1.39 0 00.5 1 2 2 0 001.4.5 1.82 1.82 0 001.4-.6 2.18 2.18 0 000-3 2.52 2.52 0 00-1.7-.6zm11.3 3.2a19.18 19.18 0 00-3-.6 1.88 1.88 0 01-.8-.2.54.54 0 01-.3-.4c0-.1.1-.2.2-.3a1.27 1.27 0 01.6-.1 2.65 2.65 0 011.4.3c.2.1.3.3.5.5h2.3v-1.9h-1.6c0 .3-.1.4-.3.4s-.2-.1-.3-.1a2.19 2.19 0 00-.9-.3 7.61 7.61 0 00-2.1-.3 5.23 5.23 0 00-3.5 1.1 2.27 2.27 0 00-.9 1.8 2.4 2.4 0 00.6 1.5 3.5 3.5 0 001.5.9 5.83 5.83 0 001.6.4l1 .2a1.45 1.45 0 01.7.2c.1 0 .2.2.2.3a.37.37 0 01-.1.3 1.45 1.45 0 01-.7.2 4.19 4.19 0 01-1.6-.4c-.3-.1-.4-.3-.5-.6h-2.5v2.5h1.6v-.3c.1-.1.1-.2.3-.2a4.5 4.5 0 01.8.2 9.75 9.75 0 002.8.5 5.45 5.45 0 003.1-1 2.77 2.77 0 001-3.6 2.17 2.17 0 00-1.1-1zm10-3.3a4.84 4.84 0 00-1.8.3 9.25 9.25 0 00-1 .5v-3.2h-4.7v1.7h.1c.6 0 .8.3.8 1v8.3h1.3c0-.5.1-.8.5-.8a.6.6 0 01.4.1 7.46 7.46 0 003.8 1 6 6 0 003.2-.9 3.89 3.89 0 002.1-3.6 4.14 4.14 0 00-1.2-3.1 4.46 4.46 0 00-3.5-1.3zm-1.5 6.8a1.29 1.29 0 01-1.3-1.1v-2.1c0-.4.1-.7.1-.9a1.29 1.29 0 011.1-.5c.7 0 1.1.2 1.3.8a3.34 3.34 0 01.3 1.5c0 1.5-.5 2.3-1.5 2.3zm16.9-5.8a5.44 5.44 0 00-1.7-.7 7.11 7.11 0 00-2.1-.3 9.28 9.28 0 00-2.4.3 6.48 6.48 0 00-2.2 1.1 3.89 3.89 0 00-1.4 3 3.82 3.82 0 002.9 3.9 9.43 9.43 0 003 .5 6.76 6.76 0 004.2-1.2 3.57 3.57 0 001.4-2.3h-3.8a1.39 1.39 0 01-1.5 1.4 1.49 1.49 0 01-1.3-.6 1.8 1.8 0 01-.3-1.1v-.2h7v-.3a5.85 5.85 0 00-.2-1.3 3.66 3.66 0 00-1.6-2.2zm-2.4 2.4h-2.7a1.45 1.45 0 01.2-.7 1.21 1.21 0 011.2-.6 1.22 1.22 0 01.9.3 1.27 1.27 0 01.4.9v.1zm16.5 2.4v-8.2h-4.9v1.7h.3c.6 0 .8.3.8 1v.2a5 5 0 00-2.7-.7 5.3 5.3 0 00-2.7.8 4 4 0 00-2.2 3.8 3.78 3.78 0 002 3.6 5 5 0 002.7.7 5.74 5.74 0 002.9-.8v.6h4.8v-1.7h-.1c-.6 0-.9-.3-.9-1zm-4.2.2a1.17 1.17 0 01-1.1.7 1.36 1.36 0 01-1.1-.7 2.81 2.81 0 01-.3-1.5 3.16 3.16 0 01.4-1.9 1.23 1.23 0 011-.5c.1 0 .3.1.5 0a1 1 0 01.6.5 2.81 2.81 0 01.3 1.5 3.82 3.82 0 01-.3 1.9zm13.6-5.9a2.93 2.93 0 00-1.6.4 9 9 0 00-1.1.7v-.9h-4.7v1.9h.1c.6 0 .8.3.8 1v2.8a.77.77 0 01-.8 1h-.1v1.7h6v-1.7h-.3c-.4 0-.7-.1-.8-.4-.1-.1-.1-.3-.1-.6v-2.2a1.59 1.59 0 01.4-1.2c.1-.1.4-.2.7-.4a1.27 1.27 0 00-.1.6 1.39 1.39 0 00.5 1 2 2 0 001.4.5 1.82 1.82 0 001.4-.6 2.17 2.17 0 000-3 2.52 2.52 0 00-1.7-.6zm4.3-.9a3.34 3.34 0 001.5.3 5.07 5.07 0 001.3-.2 1.05 1.05 0 00.8-1 1 1 0 00-.6-.9 3.51 3.51 0 00-1.6-.3c-1.4 0-2.2.5-2 1.2a1 1 0 00.6.9zm3.5 6.7v-5.6h-4.8v1.8h.1c.6 0 .8.3.8 1v2.8a.77.77 0 01-.8 1h-.1v1.7h5.8v-1.7h-.1c-.6 0-.9-.3-.9-1zm6.8.4v-6H236v1.9h.1c.6 0 .8.3.8 1v3.6c0 .4 0 .7.1.8s.3.4.6.6c.5.4.8.6.8.6.2.2.3.3.3.5a.49.49 0 01-.1.3.92.92 0 00-.4-.6 1.69 1.69 0 00-1-.3 2.77 2.77 0 00-1.3.3.78.78 0 00-.4.4c-.1.2-.2.3-.2.5a.91.91 0 00.3.7 3 3 0 002 .6 8.81 8.81 0 001.7-.2 5.35 5.35 0 001.3-.6 1.86 1.86 0 00.7-1.6 3 3 0 00-.2-1.2 5.34 5.34 0 01-.3-1.3zm-3.5-7.1a3.34 3.34 0 001.5.3 5.07 5.07 0 001.3-.2 1.05 1.05 0 00.8-1 1 1 0 00-.6-.9 3.51 3.51 0 00-1.6-.3c-1.4 0-2.2.5-2 1.2a1 1 0 00.6.9zm9.6 1a1 1 0 01-.4-.9c0-.2 0-.3.1-.4.1.7.6 1 1.5 1a2 2 0 00.9-.2 1 1 0 00.5-.4 1.42 1.42 0 00.2-.6 1.17 1.17 0 00-.7-1.1 5.14 5.14 0 00-2.5-.4 4.77 4.77 0 00-2.4.5 1.6 1.6 0 00-.8 1.4 4.59 4.59 0 00.1 1v.2h-.9v1.7h1.2v3.8a.77.77 0 01-.8 1h-.3v1.7h6.9v-1.8h-.8c-.4 0-.6 0-.8-.2-.1 0-.2-.2-.2-.3v-4.1h1.8l.1-1.6h-1.4a2.27 2.27 0 01-1.3-.3z" transform="translate(-38.6 -228.5)"/><path d="M73.7 284.3h1.2a6.52 6.52 0 015.7 2.6c1 1.1 1.5 3.4 1.5 6.8v31.8a14.48 14.48 0 01-.4 4 4.09 4.09 0 01-4.4 3.2 3.42 3.42 0 01-3-1.6 14.08 14.08 0 003.3-2.4 7.33 7.33 0 001.6-5 7.6 7.6 0 00-1.9-5.2c-3.1-3.7-7.9-5.6-14.4-5.6-5.5 0-10.1 1.4-13.8 4.3a12.66 12.66 0 00-5.2 10.8 14.33 14.33 0 003.1 9.1 22.26 22.26 0 008.5 6.7c6.4 2.9 14.1 4.4 23.3 4.4 9.7 0 18-1.9 24.7-5.7 8.5-4.8 12.7-12 12.7-21.5v-27.3c0-3.3.5-5.7 1.7-7.2s3.1-2.2 5.6-2.2h1.1v-14.5H73.7zm168.8-.5c-6.6-7-16.3-11.2-28.9-12.7a245.79 245.79 0 00-28.3-1.3h-42v14.5h1.2a6.52 6.52 0 015.7 2.6c1 1.1 1.5 3.4 1.5 6.8v28.6c0 3.3-.5 5.7-1.6 7.3s-3 2.2-5.5 2.2h-1.2v14.6h53.2c10.4 0 17.9-.4 22.6-1.3a45.84 45.84 0 0018.6-7.9c9.1-6.7 13.6-16.2 13.6-28.7 0-10.2-3-18.4-8.9-24.7zM202 330.1c-1.7.7-4.4 1-8.3 1h-7.5V285h5.9a40.81 40.81 0 018.2.6 13.11 13.11 0 016.8 4.2c2.7 3.2 4 9.2 4 18.1 0 12.4-3 19.8-9.1 22.2z" transform="translate(-38.6 -228.5)" fill="#020203"/><path class="cls-1" d="M288.5 284.3h1.2a6.52 6.52 0 015.7 2.6c1 1.1 1.5 3.4 1.5 6.8v28.6c0 3.3-.6 5.7-1.7 7.2s-3 2.2-5.5 2.2h-1.2v14.6h50.7v-14.6h-1.1a6.52 6.52 0 01-5.8-2.5q-1.5-1.65-1.5-6.9v-28.6c0-3.3.5-5.7 1.7-7.2s3.1-2.2 5.6-2.2h1.1v-14.5h-50.7v14.5zm142 43v-18.6a20 20 0 00-1-6.1 22.65 22.65 0 00-6-9.1c-4.6-4.1-10.5-6.2-17.8-6.2a36.39 36.39 0 00-14.9 3 59.25 59.25 0 00-7.2 4.2v-5.6h-33.9v11.8h.6c4.1.2 6 2.6 5.8 7.2v19.4c.3 4.5-1.7 6.9-5.8 7.2h-.6v11.8h41.6v-11.8h-2c-4.1-.3-6.1-2.7-5.9-7.2v-16a9 9 0 013.5-7.5 10.85 10.85 0 017-2.2 8.54 8.54 0 017.4 3.6 13.16 13.16 0 012 7.6v14.5c.3 4.5-1.7 6.9-5.8 7.2h-2v11.8h41.4v-11.8h-.6c-4-.3-6-2.7-5.8-7.2zm59.5-57.5c-3.2-1.7-8.8-2.6-16.9-2.6-7.3 0-12.7 1.1-16.3 3.3a10.85 10.85 0 00-5.4 9.9 67 67 0 00.7 7l.2 1.6h-6.5v12.4h8.4v26c.3 4.5-1.7 6.9-5.8 7.2h-2v11.8h47.8v-12.5h-5.8c-2.5 0-4.3-.6-5.3-1.6a5 5 0 01-1.1-2.3 24.85 24.85 0 01-.3-4.5v-24.2h12.5v-12.2h-9.8q-6 0-9-2.4a8 8 0 01-2.9-6.5 3.43 3.43 0 01.8-2.5c.5 4.7 3.9 7.1 10.2 7.1a16.55 16.55 0 006.5-1.1 8.43 8.43 0 003.8-2.8 6.37 6.37 0 001.4-3.8c0-3-1.8-5.5-5.2-7.3zm66.5 17.6a21.86 21.86 0 00-10.9 2.8c-1.7 1-4.1 2.6-7.3 4.9v-6.2h-33.6v11.8h.6c4.1.2 6 2.6 5.8 7.2v19.4c.3 4.5-1.7 6.9-5.8 7.2h-.6v11.8h41.5v-11.8h-2c-2.5-.2-4.3-1.2-5.3-3a10.3 10.3 0 01-.6-4.2v-15a11.32 11.32 0 013.1-8.4 19.71 19.71 0 014.8-3.1 9.87 9.87 0 00-1 4.2 9.43 9.43 0 003.1 7 13.27 13.27 0 009.8 3.7 13.42 13.42 0 009.9-3.8 14.21 14.21 0 004.2-10.2 13.6 13.6 0 00-4.2-10c-2.9-2.9-6.7-4.3-11.5-4.3zm98.3 46.4c-1.5 0-2.2-.8-2.2-2.5V330a8.33 8.33 0 00.1-1.2v-21a16.84 16.84 0 00-1-6.1c-2.3-5.5-7.4-9.5-15.4-11.9a64.25 64.25 0 00-18.8-2.7 99.18 99.18 0 00-10.6.7c-8.2 1-14.5 2.6-18.8 4.7-5.1 2.6-7.7 5.7-7.7 9.3a7.6 7.6 0 001.5 4.5 10 10 0 004 3.3 19.7 19.7 0 008.2 1.7c4.4 0 7.7-.7 10-2 2.7-1.5 4-3.5 4-5.9 0-1.2-.7-2.4-2.2-3.7a16.63 16.63 0 016.6-1.4c8.1 0 12.4 2.7 13 8.1.1.9.2 2.7.2 5.6-1.7-.1-3.5-.2-5.4-.2a126.3 126.3 0 00-12.7.7c-10.4 1.2-17.8 3.1-22 5.9-5.1 3.3-7.7 7.6-7.7 12.8a13.71 13.71 0 003.7 9.5 16.7 16.7 0 006.4 4.4 42.11 42.11 0 0015.9 2.8 48.42 48.42 0 0014.3-2.5 27.58 27.58 0 009.1-4.5 23.69 23.69 0 002.5 2.7c3.1 2.9 7.3 4.3 12.8 4.3 8.1 0 13.8-2.3 17.2-7a10 10 0 001.9-4.2 35.27 35.27 0 00.5-6.6h-4.8c-.1 2.5-.9 3.8-2.6 3.7zm-29.1-12.7v10.3a22.93 22.93 0 01-12 3.7 9.86 9.86 0 01-6.1-1.9 5.49 5.49 0 01-2.1-4.4c0-2.8 1.6-4.7 4.7-5.9a34.44 34.44 0 016.1-1.3 49.92 49.92 0 017.3-.6 21.33 21.33 0 012.2.1zm119.2 9.8a18.24 18.24 0 00-6.7-2.1v-.6a15.12 15.12 0 005.1-1.4 7 7 0 003.8-6.3c0-3.7-2.2-6.3-6.5-7.8a34.65 34.65 0 00-10.5-1.4h-31.8v6.9h.6a2.92 2.92 0 012.7 1.2 6.21 6.21 0 01.7 3.3v13.7a6.08 6.08 0 01-.8 3.4 3 3 0 01-2.6 1.1h-.6v7H730c1 0 2.5-.2 4.3-.3a30.21 30.21 0 004.2-.5 18.11 18.11 0 004.1-1.4 16.23 16.23 0 003.5-2.2 7.64 7.64 0 002.6-6 6.86 6.86 0 00-1-3.7 8.57 8.57 0 00-2.8-2.9zm-26.2-12.6h5.6c2.2 0 3.6.2 4.2.7a3.23 3.23 0 011.3 2.7 3.06 3.06 0 01-2.8 3.2 16 16 0 01-3.6.3h-4.7v-6.9zm11 20.8c-.9 1.1-2.5 1.6-4.7 1.6h-6.2v-8.2h5.5c4.3 0 6.4 1.3 6.4 3.9a3.94 3.94 0 01-1 2.7zm49.9-27.8h-.1v6.8h.7c1.9 0 2.8.7 2.8 2.1a5.15 5.15 0 01-.5 2.1l-4.6 11.5-5.2-12.1a3.19 3.19 0 01-.3-1.4c0-1.4.9-2.1 2.5-2.1h.9v-6.9H751v6.9a6 6 0 015.8 5.3l10.2 24.4h17.4l10.4-25.4a8.52 8.52 0 012.2-3.4 6.42 6.42 0 013.2-.9v-6.9z" transform="translate(-38.6 -228.5)"/></svg>